M48
;DRILL file {KiCad 4.0.4-stable} date 04/18/19 21:09:26
;FORMAT={3:3/ absolute / metric / suppress leading zeros}
FMAT,2
METRIC,TZ
T1C0.400
T2C0.600
T3C0.850
T4C1.000
%
G90
G05
M71
T1
X112649Y-88265
X115951Y-93980
X116713Y-98552
X116967Y-89916
X118110Y-86868
X118237Y-88773
X119253Y-88392
X120269Y-96647
X121031Y-98298
X122428Y-89916
X122682Y-94234
X123063Y-88519
X123698Y-86868
X124333Y-89281
T3
X115610Y-99885
X120610Y-99885
T4
X113030Y-78740
X113030Y-81280
X113030Y-83820
X115570Y-78740
X115570Y-81280
X115570Y-83820
X120650Y-78740
X120650Y-81280
X120650Y-83820
X123190Y-78740
X123190Y-81280
X123190Y-83820
T2
X114610Y-102935G85X114610Y-102235
G05
X121610Y-102235G85X121610Y-102935
G05
T0
M30
