G04 #@! TF.FileFunction,Legend,Top*
%FSLAX46Y46*%
G04 Gerber Fmt 4.6, Leading zero omitted, Abs format (unit mm)*
G04 Created by KiCad (PCBNEW 4.0.4-stable) date 04/18/19 21:09:23*
%MOMM*%
%LPD*%
G01*
G04 APERTURE LIST*
%ADD10C,0.100000*%
%ADD11C,0.120000*%
%ADD12C,0.150000*%
G04 APERTURE END LIST*
D10*
X123888572Y-77349000D02*
X123817143Y-77313286D01*
X123710000Y-77313286D01*
X123602857Y-77349000D01*
X123531429Y-77420429D01*
X123495714Y-77491857D01*
X123460000Y-77634714D01*
X123460000Y-77741857D01*
X123495714Y-77884714D01*
X123531429Y-77956143D01*
X123602857Y-78027571D01*
X123710000Y-78063286D01*
X123781429Y-78063286D01*
X123888572Y-78027571D01*
X123924286Y-77991857D01*
X123924286Y-77741857D01*
X123781429Y-77741857D01*
X124245714Y-78063286D02*
X124245714Y-77313286D01*
X124674286Y-78063286D01*
X124674286Y-77313286D01*
X125031428Y-78063286D02*
X125031428Y-77313286D01*
X125210000Y-77313286D01*
X125317143Y-77349000D01*
X125388571Y-77420429D01*
X125424286Y-77491857D01*
X125460000Y-77634714D01*
X125460000Y-77741857D01*
X125424286Y-77884714D01*
X125388571Y-77956143D01*
X125317143Y-78027571D01*
X125210000Y-78063286D01*
X125031428Y-78063286D01*
X123281428Y-80095286D02*
X123281428Y-79345286D01*
X123531428Y-79881000D01*
X123781428Y-79345286D01*
X123781428Y-80095286D01*
X124281429Y-79345286D02*
X124424286Y-79345286D01*
X124495714Y-79381000D01*
X124567143Y-79452429D01*
X124602857Y-79595286D01*
X124602857Y-79845286D01*
X124567143Y-79988143D01*
X124495714Y-80059571D01*
X124424286Y-80095286D01*
X124281429Y-80095286D01*
X124210000Y-80059571D01*
X124138571Y-79988143D01*
X124102857Y-79845286D01*
X124102857Y-79595286D01*
X124138571Y-79452429D01*
X124210000Y-79381000D01*
X124281429Y-79345286D01*
X124888571Y-80059571D02*
X124995714Y-80095286D01*
X125174285Y-80095286D01*
X125245714Y-80059571D01*
X125281428Y-80023857D01*
X125317143Y-79952429D01*
X125317143Y-79881000D01*
X125281428Y-79809571D01*
X125245714Y-79773857D01*
X125174285Y-79738143D01*
X125031428Y-79702429D01*
X124960000Y-79666714D01*
X124924285Y-79631000D01*
X124888571Y-79559571D01*
X124888571Y-79488143D01*
X124924285Y-79416714D01*
X124960000Y-79381000D01*
X125031428Y-79345286D01*
X125210000Y-79345286D01*
X125317143Y-79381000D01*
X125638571Y-80095286D02*
X125638571Y-79345286D01*
X119217428Y-86191286D02*
X119217428Y-85441286D01*
X119467428Y-85977000D01*
X119717428Y-85441286D01*
X119717428Y-86191286D01*
X120074571Y-86191286D02*
X120074571Y-85441286D01*
X120396000Y-86155571D02*
X120503143Y-86191286D01*
X120681714Y-86191286D01*
X120753143Y-86155571D01*
X120788857Y-86119857D01*
X120824572Y-86048429D01*
X120824572Y-85977000D01*
X120788857Y-85905571D01*
X120753143Y-85869857D01*
X120681714Y-85834143D01*
X120538857Y-85798429D01*
X120467429Y-85762714D01*
X120431714Y-85727000D01*
X120396000Y-85655571D01*
X120396000Y-85584143D01*
X120431714Y-85512714D01*
X120467429Y-85477000D01*
X120538857Y-85441286D01*
X120717429Y-85441286D01*
X120824572Y-85477000D01*
X121288858Y-85441286D02*
X121431715Y-85441286D01*
X121503143Y-85477000D01*
X121574572Y-85548429D01*
X121610286Y-85691286D01*
X121610286Y-85941286D01*
X121574572Y-86084143D01*
X121503143Y-86155571D01*
X121431715Y-86191286D01*
X121288858Y-86191286D01*
X121217429Y-86155571D01*
X121146000Y-86084143D01*
X121110286Y-85941286D01*
X121110286Y-85691286D01*
X121146000Y-85548429D01*
X121217429Y-85477000D01*
X121288858Y-85441286D01*
X117399714Y-82091571D02*
X117506857Y-82127286D01*
X117685428Y-82127286D01*
X117756857Y-82091571D01*
X117792571Y-82055857D01*
X117828286Y-81984429D01*
X117828286Y-81913000D01*
X117792571Y-81841571D01*
X117756857Y-81805857D01*
X117685428Y-81770143D01*
X117542571Y-81734429D01*
X117471143Y-81698714D01*
X117435428Y-81663000D01*
X117399714Y-81591571D01*
X117399714Y-81520143D01*
X117435428Y-81448714D01*
X117471143Y-81413000D01*
X117542571Y-81377286D01*
X117721143Y-81377286D01*
X117828286Y-81413000D01*
X118578286Y-82055857D02*
X118542572Y-82091571D01*
X118435429Y-82127286D01*
X118364000Y-82127286D01*
X118256857Y-82091571D01*
X118185429Y-82020143D01*
X118149714Y-81948714D01*
X118114000Y-81805857D01*
X118114000Y-81698714D01*
X118149714Y-81555857D01*
X118185429Y-81484429D01*
X118256857Y-81413000D01*
X118364000Y-81377286D01*
X118435429Y-81377286D01*
X118542572Y-81413000D01*
X118578286Y-81448714D01*
X118899714Y-82127286D02*
X118899714Y-81377286D01*
X119328286Y-82127286D02*
X119006857Y-81698714D01*
X119328286Y-81377286D02*
X118899714Y-81805857D01*
X118461286Y-79079286D02*
X118211286Y-78722143D01*
X118032714Y-79079286D02*
X118032714Y-78329286D01*
X118318429Y-78329286D01*
X118389857Y-78365000D01*
X118425572Y-78400714D01*
X118461286Y-78472143D01*
X118461286Y-78579286D01*
X118425572Y-78650714D01*
X118389857Y-78686429D01*
X118318429Y-78722143D01*
X118032714Y-78722143D01*
X118747000Y-79043571D02*
X118854143Y-79079286D01*
X119032714Y-79079286D01*
X119104143Y-79043571D01*
X119139857Y-79007857D01*
X119175572Y-78936429D01*
X119175572Y-78865000D01*
X119139857Y-78793571D01*
X119104143Y-78757857D01*
X119032714Y-78722143D01*
X118889857Y-78686429D01*
X118818429Y-78650714D01*
X118782714Y-78615000D01*
X118747000Y-78543571D01*
X118747000Y-78472143D01*
X118782714Y-78400714D01*
X118818429Y-78365000D01*
X118889857Y-78329286D01*
X119068429Y-78329286D01*
X119175572Y-78365000D01*
X119389858Y-78329286D02*
X119818429Y-78329286D01*
X119604143Y-79079286D02*
X119604143Y-78329286D01*
X122444001Y-85441286D02*
X122694001Y-86191286D01*
X122944001Y-85441286D01*
X123622572Y-86119857D02*
X123586858Y-86155571D01*
X123479715Y-86191286D01*
X123408286Y-86191286D01*
X123301143Y-86155571D01*
X123229715Y-86084143D01*
X123194000Y-86012714D01*
X123158286Y-85869857D01*
X123158286Y-85762714D01*
X123194000Y-85619857D01*
X123229715Y-85548429D01*
X123301143Y-85477000D01*
X123408286Y-85441286D01*
X123479715Y-85441286D01*
X123586858Y-85477000D01*
X123622572Y-85512714D01*
X124372572Y-86119857D02*
X124336858Y-86155571D01*
X124229715Y-86191286D01*
X124158286Y-86191286D01*
X124051143Y-86155571D01*
X123979715Y-86084143D01*
X123944000Y-86012714D01*
X123908286Y-85869857D01*
X123908286Y-85762714D01*
X123944000Y-85619857D01*
X123979715Y-85548429D01*
X124051143Y-85477000D01*
X124158286Y-85441286D01*
X124229715Y-85441286D01*
X124336858Y-85477000D01*
X124372572Y-85512714D01*
X114645428Y-86191286D02*
X114645428Y-85441286D01*
X114895428Y-85977000D01*
X115145428Y-85441286D01*
X115145428Y-86191286D01*
X115502571Y-86191286D02*
X115502571Y-85441286D01*
X115824000Y-86155571D02*
X115931143Y-86191286D01*
X116109714Y-86191286D01*
X116181143Y-86155571D01*
X116216857Y-86119857D01*
X116252572Y-86048429D01*
X116252572Y-85977000D01*
X116216857Y-85905571D01*
X116181143Y-85869857D01*
X116109714Y-85834143D01*
X115966857Y-85798429D01*
X115895429Y-85762714D01*
X115859714Y-85727000D01*
X115824000Y-85655571D01*
X115824000Y-85584143D01*
X115859714Y-85512714D01*
X115895429Y-85477000D01*
X115966857Y-85441286D01*
X116145429Y-85441286D01*
X116252572Y-85477000D01*
X116716858Y-85441286D02*
X116859715Y-85441286D01*
X116931143Y-85477000D01*
X117002572Y-85548429D01*
X117038286Y-85691286D01*
X117038286Y-85941286D01*
X117002572Y-86084143D01*
X116931143Y-86155571D01*
X116859715Y-86191286D01*
X116716858Y-86191286D01*
X116645429Y-86155571D01*
X116574000Y-86084143D01*
X116538286Y-85941286D01*
X116538286Y-85691286D01*
X116574000Y-85548429D01*
X116645429Y-85477000D01*
X116716858Y-85441286D01*
X111089428Y-86191286D02*
X111089428Y-85441286D01*
X111339428Y-85977000D01*
X111589428Y-85441286D01*
X111589428Y-86191286D01*
X112089429Y-85441286D02*
X112232286Y-85441286D01*
X112303714Y-85477000D01*
X112375143Y-85548429D01*
X112410857Y-85691286D01*
X112410857Y-85941286D01*
X112375143Y-86084143D01*
X112303714Y-86155571D01*
X112232286Y-86191286D01*
X112089429Y-86191286D01*
X112018000Y-86155571D01*
X111946571Y-86084143D01*
X111910857Y-85941286D01*
X111910857Y-85691286D01*
X111946571Y-85548429D01*
X112018000Y-85477000D01*
X112089429Y-85441286D01*
X112696571Y-86155571D02*
X112803714Y-86191286D01*
X112982285Y-86191286D01*
X113053714Y-86155571D01*
X113089428Y-86119857D01*
X113125143Y-86048429D01*
X113125143Y-85977000D01*
X113089428Y-85905571D01*
X113053714Y-85869857D01*
X112982285Y-85834143D01*
X112839428Y-85798429D01*
X112768000Y-85762714D01*
X112732285Y-85727000D01*
X112696571Y-85655571D01*
X112696571Y-85584143D01*
X112732285Y-85512714D01*
X112768000Y-85477000D01*
X112839428Y-85441286D01*
X113018000Y-85441286D01*
X113125143Y-85477000D01*
X113446571Y-86191286D02*
X113446571Y-85441286D01*
X116419428Y-80603286D02*
X116419428Y-79853286D01*
X116705143Y-79853286D01*
X116776571Y-79889000D01*
X116812286Y-79924714D01*
X116848000Y-79996143D01*
X116848000Y-80103286D01*
X116812286Y-80174714D01*
X116776571Y-80210429D01*
X116705143Y-80246143D01*
X116419428Y-80246143D01*
X117419428Y-80210429D02*
X117526571Y-80246143D01*
X117562286Y-80281857D01*
X117598000Y-80353286D01*
X117598000Y-80460429D01*
X117562286Y-80531857D01*
X117526571Y-80567571D01*
X117455143Y-80603286D01*
X117169428Y-80603286D01*
X117169428Y-79853286D01*
X117419428Y-79853286D01*
X117490857Y-79889000D01*
X117526571Y-79924714D01*
X117562286Y-79996143D01*
X117562286Y-80067571D01*
X117526571Y-80139000D01*
X117490857Y-80174714D01*
X117419428Y-80210429D01*
X117169428Y-80210429D01*
X117848000Y-79853286D02*
X118312286Y-79853286D01*
X118062286Y-80139000D01*
X118169428Y-80139000D01*
X118240857Y-80174714D01*
X118276571Y-80210429D01*
X118312286Y-80281857D01*
X118312286Y-80460429D01*
X118276571Y-80531857D01*
X118240857Y-80567571D01*
X118169428Y-80603286D01*
X117955143Y-80603286D01*
X117883714Y-80567571D01*
X117848000Y-80531857D01*
X110795714Y-80567571D02*
X110902857Y-80603286D01*
X111081428Y-80603286D01*
X111152857Y-80567571D01*
X111188571Y-80531857D01*
X111224286Y-80460429D01*
X111224286Y-80389000D01*
X111188571Y-80317571D01*
X111152857Y-80281857D01*
X111081428Y-80246143D01*
X110938571Y-80210429D01*
X110867143Y-80174714D01*
X110831428Y-80139000D01*
X110795714Y-80067571D01*
X110795714Y-79996143D01*
X110831428Y-79924714D01*
X110867143Y-79889000D01*
X110938571Y-79853286D01*
X111117143Y-79853286D01*
X111224286Y-79889000D01*
X111974286Y-80531857D02*
X111938572Y-80567571D01*
X111831429Y-80603286D01*
X111760000Y-80603286D01*
X111652857Y-80567571D01*
X111581429Y-80496143D01*
X111545714Y-80424714D01*
X111510000Y-80281857D01*
X111510000Y-80174714D01*
X111545714Y-80031857D01*
X111581429Y-79960429D01*
X111652857Y-79889000D01*
X111760000Y-79853286D01*
X111831429Y-79853286D01*
X111938572Y-79889000D01*
X111974286Y-79924714D01*
X112295714Y-80603286D02*
X112295714Y-79853286D01*
X112724286Y-80603286D02*
X112402857Y-80174714D01*
X112724286Y-79853286D02*
X112295714Y-80281857D01*
X116250714Y-78063286D02*
X116250714Y-77313286D01*
X116679286Y-78063286D01*
X116679286Y-77313286D01*
X117465000Y-77991857D02*
X117429286Y-78027571D01*
X117322143Y-78063286D01*
X117250714Y-78063286D01*
X117143571Y-78027571D01*
X117072143Y-77956143D01*
X117036428Y-77884714D01*
X117000714Y-77741857D01*
X117000714Y-77634714D01*
X117036428Y-77491857D01*
X117072143Y-77420429D01*
X117143571Y-77349000D01*
X117250714Y-77313286D01*
X117322143Y-77313286D01*
X117429286Y-77349000D01*
X117465000Y-77384714D01*
X110831428Y-77809286D02*
X110831428Y-77059286D01*
X111117143Y-77059286D01*
X111188571Y-77095000D01*
X111224286Y-77130714D01*
X111260000Y-77202143D01*
X111260000Y-77309286D01*
X111224286Y-77380714D01*
X111188571Y-77416429D01*
X111117143Y-77452143D01*
X110831428Y-77452143D01*
X111831428Y-77416429D02*
X111938571Y-77452143D01*
X111974286Y-77487857D01*
X112010000Y-77559286D01*
X112010000Y-77666429D01*
X111974286Y-77737857D01*
X111938571Y-77773571D01*
X111867143Y-77809286D01*
X111581428Y-77809286D01*
X111581428Y-77059286D01*
X111831428Y-77059286D01*
X111902857Y-77095000D01*
X111938571Y-77130714D01*
X111974286Y-77202143D01*
X111974286Y-77273571D01*
X111938571Y-77345000D01*
X111902857Y-77380714D01*
X111831428Y-77416429D01*
X111581428Y-77416429D01*
X112652857Y-77309286D02*
X112652857Y-77809286D01*
X112474286Y-77023571D02*
X112295714Y-77559286D01*
X112760000Y-77559286D01*
D11*
X115010000Y-93030000D02*
X115010000Y-94930000D01*
X115010000Y-94930000D02*
X119710000Y-94930000D01*
X115010000Y-93030000D02*
X119710000Y-93030000D01*
X115010000Y-95570000D02*
X115010000Y-97470000D01*
X115010000Y-97470000D02*
X119710000Y-97470000D01*
X115010000Y-95570000D02*
X119710000Y-95570000D01*
X114210000Y-99585000D02*
X114660000Y-99585000D01*
X114210000Y-101435000D02*
X114210000Y-99585000D01*
X122010000Y-103985000D02*
X122010000Y-103735000D01*
X114210000Y-103985000D02*
X114210000Y-103735000D01*
X122010000Y-101435000D02*
X122010000Y-99585000D01*
X122010000Y-99585000D02*
X121560000Y-99585000D01*
X116410000Y-99035000D02*
X116860000Y-99035000D01*
X116410000Y-99035000D02*
X116410000Y-99485000D01*
X119320000Y-82550000D02*
X119320000Y-77410000D01*
X119320000Y-77410000D02*
X124520000Y-77410000D01*
X124520000Y-77410000D02*
X124520000Y-85150000D01*
X124520000Y-85150000D02*
X121920000Y-85150000D01*
X121920000Y-85150000D02*
X121920000Y-82550000D01*
X121920000Y-82550000D02*
X119320000Y-82550000D01*
X119320000Y-83820000D02*
X119320000Y-85150000D01*
X119320000Y-85150000D02*
X120590000Y-85150000D01*
D12*
X116035000Y-86325000D02*
X116035000Y-86375000D01*
X120185000Y-86325000D02*
X120185000Y-86470000D01*
X120185000Y-91475000D02*
X120185000Y-91330000D01*
X116035000Y-91475000D02*
X116035000Y-91330000D01*
X116035000Y-86325000D02*
X120185000Y-86325000D01*
X116035000Y-91475000D02*
X120185000Y-91475000D01*
X116035000Y-86375000D02*
X114635000Y-86375000D01*
D11*
X111635000Y-93670000D02*
X111635000Y-94600000D01*
X111635000Y-96830000D02*
X111635000Y-95900000D01*
X111635000Y-96830000D02*
X113795000Y-96830000D01*
X111635000Y-93670000D02*
X113095000Y-93670000D01*
X124585000Y-96830000D02*
X124585000Y-95900000D01*
X124585000Y-93670000D02*
X124585000Y-94600000D01*
X124585000Y-93670000D02*
X122425000Y-93670000D01*
X124585000Y-96830000D02*
X123125000Y-96830000D01*
X111700000Y-82550000D02*
X111700000Y-77410000D01*
X111700000Y-77410000D02*
X116900000Y-77410000D01*
X116900000Y-77410000D02*
X116900000Y-85150000D01*
X116900000Y-85150000D02*
X114300000Y-85150000D01*
X114300000Y-85150000D02*
X114300000Y-82550000D01*
X114300000Y-82550000D02*
X111700000Y-82550000D01*
X111700000Y-83820000D02*
X111700000Y-85150000D01*
X111700000Y-85150000D02*
X112970000Y-85150000D01*
D12*
X117371905Y-94432381D02*
X117371905Y-93432381D01*
X117610000Y-93432381D01*
X117752858Y-93480000D01*
X117848096Y-93575238D01*
X117895715Y-93670476D01*
X117943334Y-93860952D01*
X117943334Y-94003810D01*
X117895715Y-94194286D01*
X117848096Y-94289524D01*
X117752858Y-94384762D01*
X117610000Y-94432381D01*
X117371905Y-94432381D01*
X118895715Y-94432381D02*
X118324286Y-94432381D01*
X118610000Y-94432381D02*
X118610000Y-93432381D01*
X118514762Y-93575238D01*
X118419524Y-93670476D01*
X118324286Y-93718095D01*
X117371905Y-96972381D02*
X117371905Y-95972381D01*
X117610000Y-95972381D01*
X117752858Y-96020000D01*
X117848096Y-96115238D01*
X117895715Y-96210476D01*
X117943334Y-96400952D01*
X117943334Y-96543810D01*
X117895715Y-96734286D01*
X117848096Y-96829524D01*
X117752858Y-96924762D01*
X117610000Y-96972381D01*
X117371905Y-96972381D01*
X118324286Y-96067619D02*
X118371905Y-96020000D01*
X118467143Y-95972381D01*
X118705239Y-95972381D01*
X118800477Y-96020000D01*
X118848096Y-96067619D01*
X118895715Y-96162857D01*
X118895715Y-96258095D01*
X118848096Y-96400952D01*
X118276667Y-96972381D01*
X118895715Y-96972381D01*
X117776667Y-97687381D02*
X117776667Y-98401667D01*
X117729047Y-98544524D01*
X117633809Y-98639762D01*
X117490952Y-98687381D01*
X117395714Y-98687381D01*
X118776667Y-98687381D02*
X118205238Y-98687381D01*
X118490952Y-98687381D02*
X118490952Y-97687381D01*
X118395714Y-97830238D01*
X118300476Y-97925476D01*
X118205238Y-97973095D01*
X127174667Y-85812381D02*
X127174667Y-86526667D01*
X127127047Y-86669524D01*
X127031809Y-86764762D01*
X126888952Y-86812381D01*
X126793714Y-86812381D01*
X127603238Y-85907619D02*
X127650857Y-85860000D01*
X127746095Y-85812381D01*
X127984191Y-85812381D01*
X128079429Y-85860000D01*
X128127048Y-85907619D01*
X128174667Y-86002857D01*
X128174667Y-86098095D01*
X128127048Y-86240952D01*
X127555619Y-86812381D01*
X128174667Y-86812381D01*
X119118285Y-76779381D02*
X119118285Y-75779381D01*
X119499238Y-75779381D01*
X119594476Y-75827000D01*
X119642095Y-75874619D01*
X119689714Y-75969857D01*
X119689714Y-76112714D01*
X119642095Y-76207952D01*
X119594476Y-76255571D01*
X119499238Y-76303190D01*
X119118285Y-76303190D01*
X120118285Y-76779381D02*
X120118285Y-76112714D01*
X120118285Y-76303190D02*
X120165904Y-76207952D01*
X120213523Y-76160333D01*
X120308761Y-76112714D01*
X120404000Y-76112714D01*
X120880190Y-76779381D02*
X120784952Y-76731762D01*
X120737333Y-76684143D01*
X120689714Y-76588905D01*
X120689714Y-76303190D01*
X120737333Y-76207952D01*
X120784952Y-76160333D01*
X120880190Y-76112714D01*
X121023048Y-76112714D01*
X121118286Y-76160333D01*
X121165905Y-76207952D01*
X121213524Y-76303190D01*
X121213524Y-76588905D01*
X121165905Y-76684143D01*
X121118286Y-76731762D01*
X121023048Y-76779381D01*
X120880190Y-76779381D01*
X122070667Y-76112714D02*
X122070667Y-76922238D01*
X122023048Y-77017476D01*
X121975429Y-77065095D01*
X121880190Y-77112714D01*
X121737333Y-77112714D01*
X121642095Y-77065095D01*
X122070667Y-76731762D02*
X121975429Y-76779381D01*
X121784952Y-76779381D01*
X121689714Y-76731762D01*
X121642095Y-76684143D01*
X121594476Y-76588905D01*
X121594476Y-76303190D01*
X121642095Y-76207952D01*
X121689714Y-76160333D01*
X121784952Y-76112714D01*
X121975429Y-76112714D01*
X122070667Y-76160333D01*
X122546857Y-76779381D02*
X122546857Y-76112714D01*
X122546857Y-76303190D02*
X122594476Y-76207952D01*
X122642095Y-76160333D01*
X122737333Y-76112714D01*
X122832572Y-76112714D01*
X117094095Y-89368381D02*
X117094095Y-90177905D01*
X117141714Y-90273143D01*
X117189333Y-90320762D01*
X117284571Y-90368381D01*
X117475048Y-90368381D01*
X117570286Y-90320762D01*
X117617905Y-90273143D01*
X117665524Y-90177905D01*
X117665524Y-89368381D01*
X118665524Y-90368381D02*
X118094095Y-90368381D01*
X118379809Y-90368381D02*
X118379809Y-89368381D01*
X118284571Y-89511238D01*
X118189333Y-89606476D01*
X118094095Y-89654095D01*
X111656905Y-98202381D02*
X111656905Y-97202381D01*
X111895000Y-97202381D01*
X112037858Y-97250000D01*
X112133096Y-97345238D01*
X112180715Y-97440476D01*
X112228334Y-97630952D01*
X112228334Y-97773810D01*
X112180715Y-97964286D01*
X112133096Y-98059524D01*
X112037858Y-98154762D01*
X111895000Y-98202381D01*
X111656905Y-98202381D01*
X112561667Y-97202381D02*
X113180715Y-97202381D01*
X112847381Y-97583333D01*
X112990239Y-97583333D01*
X113085477Y-97630952D01*
X113133096Y-97678571D01*
X113180715Y-97773810D01*
X113180715Y-98011905D01*
X113133096Y-98107143D01*
X113085477Y-98154762D01*
X112990239Y-98202381D01*
X112704524Y-98202381D01*
X112609286Y-98154762D01*
X112561667Y-98107143D01*
X123086905Y-93202381D02*
X123086905Y-92202381D01*
X123325000Y-92202381D01*
X123467858Y-92250000D01*
X123563096Y-92345238D01*
X123610715Y-92440476D01*
X123658334Y-92630952D01*
X123658334Y-92773810D01*
X123610715Y-92964286D01*
X123563096Y-93059524D01*
X123467858Y-93154762D01*
X123325000Y-93202381D01*
X123086905Y-93202381D01*
X124515477Y-92535714D02*
X124515477Y-93202381D01*
X124277381Y-92154762D02*
X124039286Y-92869048D01*
X124658334Y-92869048D01*
X106346667Y-85812381D02*
X106346667Y-86526667D01*
X106299047Y-86669524D01*
X106203809Y-86764762D01*
X106060952Y-86812381D01*
X105965714Y-86812381D01*
X106727619Y-85812381D02*
X107346667Y-85812381D01*
X107013333Y-86193333D01*
X107156191Y-86193333D01*
X107251429Y-86240952D01*
X107299048Y-86288571D01*
X107346667Y-86383810D01*
X107346667Y-86621905D01*
X107299048Y-86717143D01*
X107251429Y-86764762D01*
X107156191Y-86812381D01*
X106870476Y-86812381D01*
X106775238Y-86764762D01*
X106727619Y-86717143D01*
X112760285Y-75779381D02*
X112950762Y-75779381D01*
X113046000Y-75827000D01*
X113141238Y-75922238D01*
X113188857Y-76112714D01*
X113188857Y-76446048D01*
X113141238Y-76636524D01*
X113046000Y-76731762D01*
X112950762Y-76779381D01*
X112760285Y-76779381D01*
X112665047Y-76731762D01*
X112569809Y-76636524D01*
X112522190Y-76446048D01*
X112522190Y-76112714D01*
X112569809Y-75922238D01*
X112665047Y-75827000D01*
X112760285Y-75779381D01*
X113617428Y-76112714D02*
X113617428Y-77112714D01*
X113617428Y-76160333D02*
X113712666Y-76112714D01*
X113903143Y-76112714D01*
X113998381Y-76160333D01*
X114046000Y-76207952D01*
X114093619Y-76303190D01*
X114093619Y-76588905D01*
X114046000Y-76684143D01*
X113998381Y-76731762D01*
X113903143Y-76779381D01*
X113712666Y-76779381D01*
X113617428Y-76731762D01*
X114903143Y-76731762D02*
X114807905Y-76779381D01*
X114617428Y-76779381D01*
X114522190Y-76731762D01*
X114474571Y-76636524D01*
X114474571Y-76255571D01*
X114522190Y-76160333D01*
X114617428Y-76112714D01*
X114807905Y-76112714D01*
X114903143Y-76160333D01*
X114950762Y-76255571D01*
X114950762Y-76350810D01*
X114474571Y-76446048D01*
X115379333Y-76779381D02*
X115379333Y-76112714D01*
X115379333Y-76303190D02*
X115426952Y-76207952D01*
X115474571Y-76160333D01*
X115569809Y-76112714D01*
X115665048Y-76112714D01*
M02*
